<svg xmlns="http://www.w3.org/2000/svg" width="174" height="72" fill="none"><path fill="#fff" d="M77.052 37.432V13.185h9.92v3.112h-5.596v7.002h4.452v3.112h-4.452v8.039H87.1v2.982zM90.915 37.432l.381-24.118h4.452l3.434 16.598 3.561-16.727h4.324l.382 24.118h-3.18l-.381-16.727-3.307 16.727h-2.544l-3.434-16.857-.382 16.857h-3.306zM112.157 37.432V13.185h6.995c1.4 0 2.544.259 3.434.778.89.518 1.527 1.296 1.908 2.334.382 1.037.636 2.204.636 3.76 0 1.556-.254 2.853-.763 3.76-.509.908-1.272 1.686-2.162 2.075-.89.389-2.035.648-3.307.648h-2.29v10.763h-4.451zm4.324-13.874h1.654c.763 0 1.399-.13 1.78-.389.382-.26.764-.648.89-1.167a8.276 8.276 0 0 0 .255-2.075c0-.907 0-1.556-.127-2.074-.127-.52-.382-.908-.763-1.167-.382-.26-1.018-.39-2.035-.39h-1.654zM129.073 37.432V13.185h4.324v24.118h-4.324zM138.483 37.432V13.185h5.724c1.653 0 2.925.13 4.07.518 1.145.39 1.908 1.038 2.544 1.945.636.908.89 2.205.89 3.76 0 1.038-.127 1.816-.254 2.594-.128.778-.51 1.426-.89 1.945-.382.519-1.018.908-1.781 1.297l3.306 11.929h-4.324l-2.925-11.022h-2.035v11.022h-4.325zm4.325-13.874h1.399c.89 0 1.526-.13 2.035-.389.509-.26.89-.648 1.017-1.167.255-.519.382-1.297.382-2.075 0-1.167-.255-2.074-.636-2.723-.382-.648-1.272-.907-2.544-.907h-1.653zM156.29 37.432V13.185h9.92v3.112h-5.596v7.002h4.452v3.112h-4.452v8.039h5.724v2.982zM76.417 58.697V44.305h1.017l4.452 11.15v-11.15h1.144v14.392h-.89l-4.452-11.28v11.28ZM85.193 58.697l2.925-14.392h1.4l3.052 14.392h-1.272l-.636-3.89h-3.307l-.763 3.89zm2.162-4.797h3.053l-1.526-7.78zM95.75 58.697V45.342h-2.672v-1.037h6.614v1.037h-2.544v13.355ZM101.726 58.697V44.305h1.272v14.392ZM109.357 58.827c-.89 0-1.653-.13-2.162-.519-.509-.389-.89-.907-1.145-1.556-.254-.648-.381-1.426-.381-2.334v-5.965c0-.907.127-1.685.381-2.333.254-.649.636-1.167 1.145-1.556.509-.39 1.272-.52 2.162-.52.89 0 1.653.13 2.162.52.509.389.89.907 1.145 1.556.254.648.381 1.426.381 2.333v5.965c0 .908-.127 1.686-.381 2.334-.255.649-.636 1.167-1.145 1.556-.509.39-1.272.519-2.162.519zm0-1.037c.636 0 1.145-.13 1.399-.39.382-.259.509-.648.636-1.037.127-.518.127-1.037.127-1.556v-6.483c0-.648 0-1.167-.127-1.556a2.828 2.828 0 0 0-.636-1.037c-.381-.26-.763-.39-1.399-.39s-1.145.13-1.4.39c-.38.259-.508.648-.635 1.037-.127.389-.127 1.037-.127 1.556v6.483c0 .648 0 1.167.127 1.556.127.519.382.778.636 1.038.254.259.763.389 1.399.389zM115.59 58.697V44.305h1.018l4.451 11.15v-11.15h1.145v14.392h-1.018l-4.451-11.28v11.28ZM124.239 58.697l2.925-14.392h1.4l3.052 14.392h-1.272l-.636-3.89h-3.434l-.763 3.89zm2.29-4.797h3.052l-1.527-7.78zM133.778 58.697V44.305h1.272V57.66h3.943v1.037zM144.843 58.697V44.305h1.272v14.392ZM149.168 58.697V44.305h1.017l4.452 11.15v-11.15h1.144v14.392h-.89l-4.452-11.28v11.28ZM161.886 58.827c-.89 0-1.653-.26-2.162-.648-.509-.39-.89-.908-1.018-1.686-.254-.648-.254-1.426-.254-2.204v-5.706c0-.907.127-1.685.254-2.334.255-.648.509-1.166 1.145-1.555.509-.39 1.272-.52 2.162-.52.89 0 1.526.13 2.035.52.509.389.89.777 1.018 1.426.254.648.254 1.296.254 2.204v.908h-1.272v-.778c0-.649 0-1.167-.127-1.556-.127-.39-.254-.778-.636-1.038-.254-.259-.763-.389-1.272-.389-.636 0-1.145.13-1.399.39-.381.259-.509.648-.636 1.166-.127.519-.127 1.038-.127 1.686v5.835c0 .649.127 1.297.254 1.816.128.518.382.777.636 1.037.382.26.764.389 1.4.389.635 0 1.017-.13 1.271-.39.255-.259.509-.648.636-1.036.127-.52.128-1.038.128-1.686v-.908h1.271v.778c0 .778-.127 1.556-.254 2.204-.254.649-.509 1.167-1.017 1.556-.764.39-1.4.519-2.29.519zM167.61 58.698v-1.945h1.4v1.945z" style="stroke-width:.215939"/><path fill="url(#a)" d="M34.013 30.478v34.54l18.14-13.714 3.401 2.54-20.66 15.491-.881.762-2.52 1.905-2.267-1.778-1.134-.762L0 48.51V.002l25.95 19.429-3.4 2.54L4.912 8.763v19.682l17.51 13.08-3.401 2.54-14.109-10.54v13.46l24.313 18.032V21.716l29.1 21.714V8.764L40.563 21.97l-3.4-2.54L63.112.003v52.19Z" style="fill:url(#a);stroke-width:.215939"/><path fill="#fff" d="M171.071 16.228v-1.982h1.014c.082 0 .17.023.266.07a.615.615 0 0 1 .244.21.58.58 0 0 1 .103.354.637.637 0 0 1-.105.37.708.708 0 0 1-.54.307h-.732v-.323h.596c.06 0 .124-.03.193-.088.07-.06.106-.148.106-.266 0-.122-.036-.204-.106-.247a.356.356 0 0 0-.182-.065h-.418v1.66zm1.21-.935.499.935h-.483l-.488-.935zm-.45 2.117c-.3 0-.582-.055-.844-.166a2.182 2.182 0 0 1-1.158-1.147 2.084 2.084 0 0 1-.168-.836c0-.297.056-.576.168-.835a2.16 2.16 0 0 1 1.158-1.147 2.14 2.14 0 0 1 .843-.167c.3 0 .582.055.844.167a2.182 2.182 0 0 1 1.158 1.147c.112.26.168.538.168.835 0 .298-.056.576-.168.836a2.16 2.16 0 0 1-1.158 1.147 2.14 2.14 0 0 1-.844.166zm0-.515c.303 0 .58-.074.83-.22.249-.147.448-.345.596-.592.148-.247.222-.52.222-.822 0-.3-.074-.575-.222-.822a1.676 1.676 0 0 0-.597-.59 1.606 1.606 0 0 0-.83-.221c-.303 0-.58.073-.83.22-.249.147-.448.344-.596.591a1.568 1.568 0 0 0-.222.822c0 .301.074.575.222.822.148.247.347.445.597.591.25.147.526.22.83.22z" style="stroke-width:.215939"/><defs><linearGradient id="a" x1="-.063" x2="290.684" y1="167.743" y2="167.743" gradientTransform="matrix(.21696 0 0 .21493 0 .002)" gradientUnits="userSpaceOnUse"><stop stop-color="#1B75BC"/><stop offset="1" stop-color="#262262"/></linearGradient></defs></svg>
